# xmcd
#
# Track frame offsets:
#  150
#  17234
#  31894
#  48501
#  61774
#  92924
#  106685
#  123811
#  134655
#  152077
#
# Disc length: 2394 seconds
#
# Revision: 0
# Processed by: cddbd v1.5.1PL0 Copyright (c) Steve Scherf et al.
# Submitted via: AltoMP3_Maker 3.0
#
DISCID=7b09580a
DTITLE=shanti sewnandan,sachin sewgolam - Baithak Lines Repeats
DYEAR=1900
DGENRE=
TTITLE0=Sari Djawania
TTITLE1=Silwa
TTITLE2=Lalka Makra
TTITLE3=Holland Ke Auratia
TTITLE4=Laal Meri
TTITLE5=Jaan Mera
TTITLE6=Tera Mera
TTITLE7=Djab Dil Na Lage
TTITLE8=Bhoudjie
TTITLE9=Soerat Bisaro
EXTD=
EXTT0=
EXTT1=
EXTT2=
EXTT3=
EXTT4=
EXTT5=
EXTT6=
EXTT7=
EXTT8=
EXTT9=
PLAYORDER=
